<svg xmlns="http://www.w3.org/2000/svg" width="1400" height="520" viewBox="0 0 1400 520"><rect width="1400" height="520" fill="#FFFFFF"/><defs><linearGradient id="g2" x1="0" y1="0" x2="1" y2="1"><stop offset="0" stop-color="#13B5A6"/><stop offset="1" stop-color="#1466B8"/></linearGradient></defs><text x="358.52" y="300.00" font-family="Poppins" font-weight="700" font-size="150" fill="url(#g2)">Medı</text><text x="738.62" y="300.00" font-family="Poppins" font-weight="700" font-size="150" fill="#33475B">Trıp</text><g fill="url(#g2)"><rect x="707.80" y="166.80" width="13.50" height="32.40" rx="4.32"/><rect x="698.35" y="176.25" width="32.40" height="13.50" rx="4.32"/></g><path d="M 915.56 157.49 C 919.45 165.99 920.42 178.14 920.42 184.22 L 938.65 196.37 L 938.65 201.95 L 920.42 195.15 L 919.94 206.09 L 925.28 210.22 L 925.28 214.10 L 915.56 211.19 L 905.84 214.10 L 905.84 210.22 L 911.19 206.09 L 910.70 195.15 L 892.48 201.95 L 892.48 196.37 L 910.70 184.22 C 910.70 178.14 911.67 165.99 915.56 157.49 Z" fill="#FF6B5E"/><text x="700.0" y="390" font-family="Poppins" font-weight="500" font-size="26" letter-spacing="7" fill="#33475B" text-anchor="middle">HEAL BEYOND BORDERS</text></svg>