<svg xmlns="http://www.w3.org/2000/svg" width="1400" height="520" viewBox="0 0 1400 520"><rect width="1400" height="520" fill="#FFFFFF"/><text x="358.52" y="300.00" font-family="Poppins" font-weight="700" font-size="150" fill="#1E8FD5">Medı</text><text x="738.62" y="300.00" font-family="Poppins" font-weight="700" font-size="150" fill="#15314F">Trıp</text><path d="M 676.60 189.00 L 699.37 189.00 L 706.96 165.90 L 716.06 214.41 L 724.41 189.00 L 752.50 189.00" fill="none" stroke="#FF6B5E" stroke-width="10.56" stroke-linecap="round" stroke-linejoin="round"/><path d="M 915.56 154.98 C 920.75 166.32 922.04 182.52 922.04 190.62 L 946.34 206.82 L 946.34 214.27 L 922.04 205.20 L 921.39 219.78 L 928.52 225.29 L 928.52 230.47 L 915.56 226.58 L 902.60 230.47 L 902.60 225.29 L 909.73 219.78 L 909.08 205.20 L 884.78 214.27 L 884.78 206.82 L 909.08 190.62 C 909.08 182.52 910.38 166.32 915.56 154.98 Z" fill="#1E8FD5"/><text x="700.0" y="392" font-family="Poppins" font-weight="500" font-size="25" letter-spacing="6" fill="#33475B" text-anchor="middle">YOUR JOURNEY TO BETTER HEALTH</text></svg>