<svg xmlns="http://www.w3.org/2000/svg" width="1400" height="520" viewBox="0 0 1400 520"><rect width="1400" height="520" fill="#FFFFFF"/><text x="388.46" y="300.00" font-family="Poppins" font-weight="300" font-size="150" fill="#102A43">Medı</text><text x="743.65" y="300.00" font-family="Poppins" font-weight="300" font-size="150" fill="#0B7E77">Trıp</text><g fill="#0FA39A"><rect x="720.63" y="174.96" width="11.70" height="28.08" rx="3.74"/><rect x="712.44" y="183.15" width="28.08" height="11.70" rx="3.74"/></g><path d="M 893.12 166.89 C 896.49 174.26 897.33 184.79 897.33 190.05 L 913.12 200.58 L 913.12 205.43 L 897.33 199.53 L 896.91 209.01 L 901.54 212.59 L 901.54 215.96 L 893.12 213.43 L 884.69 215.96 L 884.69 212.59 L 889.33 209.01 L 888.91 199.53 L 873.11 205.43 L 873.11 200.58 L 888.91 190.05 C 888.91 184.79 889.75 174.26 893.12 166.89 Z" fill="#FF6B5E"/><text x="700.0" y="392" font-family="Poppins" font-weight="300" font-size="24" letter-spacing="10" fill="#33475B" text-anchor="middle">P R E M I U M   M E D I C A L   T R A V E L</text></svg>